<svg width="501" height="141" viewBox="0 0 501 141" fill="none" xmlns="http://www.w3.org/2000/svg">
<path d="M70.3334 140.282C109.178 140.282 140.667 108.879 140.667 70.1411C140.667 31.4032 109.178 0 70.3334 0C31.4893 0 0 31.4032 0 70.1411C0 108.879 31.4893 140.282 70.3334 140.282Z" fill="black"/>
<g clip-path="url(#clip0_86_345)">
<path fill-rule="evenodd" clip-rule="evenodd" d="M110.257 41.3044C111.885 39.8351 111.728 38.3596 109.943 36.8882C100.857 38.5951 44.1389 61.0618 42.8934 65.403C65.2712 57.3416 87.8016 49.3637 110.257 41.3044Z" fill="#FF851B"/>
<path fill-rule="evenodd" clip-rule="evenodd" d="M94.4075 23.4841C93.396 16.6669 85.9353 24.5699 80.5791 27.8232C75.0578 32.081 70.479 35.1822 64.8072 39.4483C59.4447 43.5499 36.9875 59.2015 35.7462 64.0054L94.4075 23.4841Z" fill="#FF851B"/>
<path fill-rule="evenodd" clip-rule="evenodd" d="M57.1062 74.1559C62.8574 71.9134 62.0821 64.0084 72.8802 68.0369C73.8896 69.6646 72.8802 71.0589 71.5594 72.6824C78.32 70.0544 82.5206 66.7219 87.5675 75.398C91.5298 74.0829 99.5338 77.3362 100.154 75.2438C97.0448 73.5431 93.7805 72.1468 88.9656 72.1468C87.4108 70.6733 85.7828 69.2791 84.1485 67.8056C81.6616 67.0303 79.0995 67.1074 76.5395 68.0369C73.8896 66.3321 72.4936 64.396 67.9879 64.396C63.5575 64.396 62.1552 66.3321 59.5931 68.0369C52.7573 68.0369 52.1366 68.112 47.0834 72.6824C43.8212 73.614 40.4817 74.4643 37.2174 75.398C37.3699 75.8628 37.4494 76.3296 37.6061 76.7131C41.257 76.1754 44.91 75.6293 48.5609 75.0896C49.8817 70.1315 59.9839 67.1866 57.1062 74.1559Z" fill="#FF851B"/>
<path fill-rule="evenodd" clip-rule="evenodd" d="M29.2949 78.1875C28.8268 96.1629 40.3271 112.973 52.448 119.486H87.8016C87.8768 119.251 100.311 108.788 103.337 103.368C106.758 97.0862 109.711 87.2534 109.711 78.1875H29.2949Z" fill="#FF851B"/>
</g>
<path d="M194.435 28.9439L179.856 68.8642L179.66 97.9239L169.876 97.826L170.169 68.6685L157.058 28.846L167.234 28.5525L175.355 56.7315L184.357 28.846L194.435 28.9439ZM222.216 50.2738C226.815 54.8725 229.555 62.6022 229.555 71.506C229.555 86.2804 222.314 97.239 212.04 98.1196C211.649 98.1196 211.258 98.1196 210.866 98.1196C207.344 98.1196 203.724 96.6519 200.593 93.9123C195.407 89.3136 192.472 81.5839 192.276 72.0931C191.982 62.3087 194.135 55.0682 198.44 50.5674C201.473 47.3385 205.681 45.5773 210.475 45.5773C214.878 45.4795 218.987 47.045 222.216 50.2738ZM211.16 88.433C216.052 87.9438 219.77 80.7033 219.77 71.506C219.77 65.3418 218.107 59.8626 215.367 57.2208C213.997 55.8509 212.53 55.2639 210.573 55.2639C208.42 55.3617 206.757 55.9488 205.387 57.3186C203.724 59.0798 201.767 62.9936 201.963 71.8974C202.158 80.899 205.289 85.0085 207.148 86.6718C208.42 87.8459 209.986 88.5308 211.16 88.433ZM261.111 96.8476L249.272 67.2009L246.239 70.5275V96.7497H236.553V28.5525H246.239V56.9272L256.513 45.3816L269.33 45.5773L255.926 60.0582L272.168 96.8476H261.111ZM302.861 50.2738C307.46 54.8725 310.199 62.6022 310.199 71.506C310.199 86.2804 302.959 97.239 292.685 98.1196C292.294 98.1196 291.903 98.1196 291.511 98.1196C287.989 98.1196 284.369 96.6519 281.238 93.9123C276.052 89.3136 273.116 81.5839 272.921 72.0931C272.627 62.3087 274.78 55.0682 279.085 50.5674C282.118 47.3385 286.325 45.5773 291.12 45.5773C295.523 45.4795 299.632 47.045 302.861 50.2738ZM291.805 88.433C296.697 87.9438 300.415 80.7033 300.415 71.506C300.415 65.3418 298.752 59.8626 296.012 57.2208C294.642 55.8509 293.175 55.2639 291.218 55.2639C289.065 55.3617 287.402 55.9488 286.032 57.3186C284.369 59.0798 282.412 62.9936 282.607 71.8974C282.803 80.899 285.934 85.0085 287.793 86.6718C289.065 87.8459 290.631 88.5308 291.805 88.433ZM342.148 48.317C349.192 51.2523 351.736 56.7315 351.736 68.6685C351.736 73.8542 351.443 95.4778 351.443 96.4562L341.756 96.2605C341.756 96.0648 341.952 73.8542 341.952 68.6685C342.05 58.7863 340.191 58.0035 338.43 57.3186C335.592 56.1445 329.917 57.3186 326.786 61.0367L326.982 96.7497H317.198L317.002 28.5525H326.688L326.786 50.6652C331.189 46.8493 337.256 46.2622 342.148 48.317ZM393.18 60.841C395.235 70.4297 394.452 95.7713 394.452 96.8476L385.842 96.554C385.646 95.3799 385.353 93.9123 385.157 92.1511C382.515 95.0864 379.091 97.3368 373.905 97.3368C371.557 97.3368 369.306 96.9454 367.154 96.0648C360.598 93.2274 356.782 86.574 357.761 79.4314C358.543 73.4629 362.555 68.8642 368.426 66.4181C372.535 64.7548 378.699 65.244 384.179 67.103C384.081 65.4397 383.885 63.972 383.592 62.8957C382.515 57.9057 378.993 57.0251 377.427 56.8294C373.22 56.438 369.796 58.8841 368.132 62.4065L360.109 58.5906C363.338 50.8609 370.578 46.3601 378.406 47.1428C385.744 47.8277 391.517 53.2092 393.18 60.841ZM370.97 87.0632C374.296 88.433 380.461 88.7265 384.864 81.0947C384.766 79.5292 384.766 78.0615 384.766 76.496C380.558 74.4413 374.981 74.3435 371.85 75.5176C370.089 76.2025 367.839 77.6702 367.447 80.7033C367.056 83.5408 368.426 85.9869 370.97 87.0632ZM453.405 60.1561C453.797 71.1146 454.188 96.3584 454.188 96.6519L444.404 96.8476C444.404 96.554 444.11 71.3103 443.719 60.5475C443.621 58.7863 442.936 57.8078 441.371 57.4165C438.044 56.5359 434.619 59.1776 432.76 62.3087C433.152 74.0499 433.445 96.4562 433.445 96.6519L423.759 96.8476C423.759 96.554 423.367 71.3103 422.976 60.5475C422.976 58.6884 422.193 57.8078 420.628 57.4165C418.377 56.9272 414.366 58.1014 412.115 62.0151L411.822 96.7497H402.135L402.429 46.8493H412.213V50.4695C415.246 47.9256 419.16 46.6536 422.682 47.4364C425.911 48.1213 428.553 49.8825 430.314 52.4264C433.641 48.1213 438.435 46.1644 443.621 47.4364C449.492 48.904 453.21 53.7962 453.405 60.1561ZM495.611 60.841C497.665 70.4297 496.883 95.7713 496.883 96.8476L488.272 96.554C488.077 95.3799 487.783 93.9123 487.587 92.1511C484.946 95.0864 481.521 97.3368 476.335 97.3368C473.987 97.3368 471.737 96.9454 469.584 96.0648C463.029 93.2274 459.213 86.574 460.191 79.4314C460.974 73.4629 464.985 68.8642 470.856 66.4181C474.966 64.7548 481.13 65.244 486.609 67.103C486.511 65.4397 486.315 63.972 486.022 62.8957C484.946 57.9057 481.423 57.0251 479.858 56.8294C475.65 56.438 472.226 58.8841 470.563 62.4065L462.539 58.5906C465.768 50.8609 473.009 46.3601 480.836 47.1428C488.175 47.8277 493.947 53.2092 495.611 60.841ZM473.4 87.0632C476.727 88.433 482.891 88.7265 487.294 81.0947C487.196 79.5292 487.196 78.0615 487.196 76.496C482.989 74.4413 477.412 74.3435 474.281 75.5176C472.519 76.2025 470.269 77.6702 469.878 80.7033C469.486 83.5408 470.856 85.9869 473.4 87.0632Z" fill="black"/>
<defs>
<clipPath id="clip0_86_345">
<rect width="98.9631" height="98.6925" fill="white" transform="translate(20.8518 20.7939)"/>
</clipPath>
</defs>
</svg>
