<svg width="137" height="137" viewBox="0 0 137 137" fill="none" xmlns="http://www.w3.org/2000/svg">
<g clip-path="url(#clip0_95_235)">
<path fill-rule="evenodd" clip-rule="evenodd" d="M123.126 28.3222C125.368 26.2932 125.153 24.2555 122.695 22.2236C110.181 24.5808 32.0704 55.6062 30.3551 61.6012C61.1734 50.4689 92.2017 39.4517 123.126 28.3222Z" fill="#FF851B"/>
<path fill-rule="evenodd" clip-rule="evenodd" d="M101.299 3.71493C99.9062 -5.6992 89.6316 5.2144 82.2551 9.70705C74.6513 15.5869 68.3454 19.8695 60.5344 25.7609C53.1493 31.4249 22.2217 53.0391 20.5121 59.673L101.299 3.71493Z" fill="#FF851B"/>
<path fill-rule="evenodd" clip-rule="evenodd" d="M49.9287 73.6891C57.8491 70.5923 56.7814 59.6759 71.6523 65.2392C73.0424 67.4869 71.6523 69.4123 69.8334 71.6543C79.1439 68.0251 84.9288 63.4231 91.8793 75.4045C97.3361 73.5884 108.359 78.0811 109.214 75.1915C104.931 72.843 100.436 70.9147 93.8047 70.9147C91.6634 68.8799 89.4214 66.9545 87.1708 64.9197C83.7459 63.849 80.2174 63.9555 76.6918 65.2392C73.0424 62.8849 71.1199 60.2112 64.9148 60.2112C58.8133 60.2112 56.8821 62.8849 53.3536 65.2392C43.9395 65.2392 43.0847 65.3428 36.1255 71.6543C31.6329 72.9408 27.0337 74.1151 22.5382 75.4045C22.7483 76.0463 22.8577 76.691 23.0735 77.2205C28.1015 76.478 33.1323 75.7239 38.1603 74.9785C39.9792 68.1316 53.8918 64.0649 49.9287 73.6891Z" fill="#FF851B"/>
<path fill-rule="evenodd" clip-rule="evenodd" d="M11.6276 79.2583C10.9829 104.082 26.8208 127.296 43.5136 136.29H92.2017C92.3053 135.965 109.43 121.517 113.597 114.031C118.309 105.357 122.375 91.7779 122.375 79.2583H11.6276Z" fill="#FF851B"/>
</g>
<defs>
<clipPath id="clip0_95_235">
<rect width="136.29" height="136.29" fill="white"/>
</clipPath>
</defs>
</svg>
